{"title":"A Walk Among the Tombstones 2014 HDRip XviD AC3-GiANGi","uid":11558652,"size":1268596736,"categoryP":"video","categoryS":"movies","magnet":"?xt=urn:btih:14082ef5448829f197439accb16f0d34f6844352&amp;dn=A+Walk+Among+the+Tombstones+2014+HDRip+XviD+AC3-GiANGi&amp;tr=udp%3A%2F%2Ftracker.openbittorrent.com%3A80&amp;tr=udp%3A%2F%2Fopen.demonii.com%3A1337&amp;tr=udp%3A%2F%2Ftracker.coppersurfer.tk%3A6969&amp;tr=udp%3A%2F%2Fexodus.desync.com%3A6969","seeders":12,"leechers":0,"uploader":"peaSoup","files":-1,"time":1416853819,"description":"Storyline\n\nMatt Scudder is a former cop now a private eye. He is asked by a drug dealer to find the men who kidnapped his wife. It seems like they killed her even after he paid them. Scudder refuses. But the man later goes to see him and tells him how his wife was killed. Scudder takes the job. He does some research and thinks the men he is looking for have done this more than once. And that everyone they grabbed is connected to a drug dealer. He was about to give up when they grab another girl and Scudder tries make sure she's returned alive.                                       &lt;a href=&quot; http://i.imgur.com/ShvxxTG.jpg&quot; rel=&quot;nofollow&quot; target=&quot;_NEW&quot;&gt; http://i.imgur.com/ShvxxTG.jpg&lt;/a&gt;                                                      &lt;a href=&quot; http://i.imgur.com/eCsIVlH.jpg&quot; rel=&quot;nofollow&quot; target=&quot;_NEW&quot;&gt; http://i.imgur.com/eCsIVlH.jpg&lt;/a&gt;                                                      &lt;a href=&quot; http://i.imgur.com/rmplhGK.jpg&quot; rel=&quot;nofollow&quot; target=&quot;_NEW&quot;&gt; http://i.imgur.com/rmplhGK.jpg&lt;/a&gt;                                                      &lt;a href=&quot; http://i.imgur.com/15UOw3J.jpg&quot; rel=&quot;nofollow&quot; target=&quot;_NEW&quot;&gt; http://i.imgur.com/15UOw3J.jpg&lt;/a&gt;                                                       \nFormat                                   : AVI\nFormat/Info                              : Audio Video Interleave\nFile size                                : 1.18 GiB\nDuration                                 : 1h 48mn\nOverall bit rate                         : 1 555 Kbps\nWriting application                      : VirtualDubMod 1.5.10.3 | www.virtualdub-fr.org || (build 2550/release)\nWriting library                          : VirtualDubMod build 2550/release\n\nVideo\nID                                       : 0\nFormat                                   : MPEG-4 Visual\nFormat profile                           : Advanced Simple@L5\nFormat settings, BVOP                    : 1\nFormat settings, QPel                    : No\nFormat settings, GMC                     : No warppoints\nFormat settings, Matrix                  : Default (H.263)\nCodec ID                                 : XVID\nCodec ID/Hint                            : XviD\nDuration                                 : 1h 48mn\nBit rate                                 : 1 353 Kbps\nWidth                                    : 640 pixels\nHeight                                   : 360 pixels\nDisplay aspect ratio                     : 16:9\nFrame rate                               : 25.000 fps\nColor space                              : YUV\nChroma subsampling                       : 4:2:0\nBit depth                                : 8 bits\nScan type                                : Progressive\nCompression mode                         : Lossy\nBits/(Pixel*Frame)                       : 0.235\nStream size                              : 1.03 GiB (87%)\nWriting library                          : XviD 73\n\nAudio\nID                                       : 1\nFormat                                   : AC-3\nFormat/Info                              : Audio Coding 3\nMode extension                           : CM (complete main)\nFormat settings, Endianness              : Big\nCodec ID                                 : 2000\nDuration                                 : 1h 48mn\nBit rate mode                            : Constant\nBit rate                                 : 192 Kbps\nChannel(s)                               : 6 channels\nChannel positions                        : Front: L C R, Side: L R, LFE\nSampling rate                            : 48.0 KHz\nBit depth                                : 16 bits\nCompression mode                         : Lossy\nStream size                              : 149 MiB (12%)\nAlignment                                : Split accross interleaves\nInterleave, duration                     : 40 ms (1.00 video frame)\nInterleave, preload duration             : 500 ms","torrent":{"xt":"urn:btih:14082ef5448829f197439accb16f0d34f6844352","amp;dn":"A+Walk+Among+the+Tombstones+2014+HDRip+XviD+AC3-GiANGi","amp;tr":["udp%3A%2F%2Ftracker.openbittorrent.com%3A80","udp%3A%2F%2Fopen.demonii.com%3A1337","udp%3A%2F%2Ftracker.coppersurfer.tk%3A6969","udp%3A%2F%2Fexodus.desync.com%3A6969"],"infoHash":"14082ef5448829f197439accb16f0d34f6844352","infoHashBuffer":{"type":"Buffer","data":[20,8,46,245,68,136,41,241,151,67,154,204,177,111,13,52,246,132,67,82]},"announce":[],"urlList":[]}}